<?xml version="1.0" encoding="utf-8"?>
<!-- Generator: Adobe Illustrator 24.3.0, SVG Export Plug-In . SVG Version: 6.00 Build 0)  -->
<svg version="1.1" id="Layer_1" xmlns="http://www.w3.org/2000/svg" xmlns:xlink="http://www.w3.org/1999/xlink" x="0px" y="0px"
	 viewBox="0 0 1000 1000" style="enable-background:new 0 0 1000 1000;" xml:space="preserve">
<style type="text/css">
	.st0{fill-rule:evenodd;clip-rule:evenodd;fill:#FFFFFF;}
	.st1{fill-rule:evenodd;clip-rule:evenodd;fill:#014386;}
	.st2{fill-rule:evenodd;clip-rule:evenodd;fill:#FF671D;}
	.st3{fill:#014386;}
</style>
<g>
	<path class="st0" d="M500.1,73.01L500.1,73.01c3.37,0,6.74,0.05,10.1,0.13c0.66,0.01,1.32,0.03,1.98,0.05
		c2.94,0.09,5.87,0.2,8.82,0.34c0.49,0.03,0.97,0.05,1.45,0.07c162.63,8.39,305.9,108.95,369.91,257.45
		c58.95,18.37,65.42,117.8,65.42,168.95c0,49.3-6.36,135.6-60.19,156.27c-60.97,155.03-207.55,261.44-375.05,270.12h-0.05
		l-1.45,0.07c-2.96,0.14-5.94,0.25-8.91,0.34c-0.58,0.01-1.17,0.03-1.75,0.05c-3.42,0.08-6.83,0.13-10.26,0.13h-0.14h-0.08
		c-3.37,0-6.74-0.05-10.11-0.13c-0.64-0.02-1.28-0.03-1.91-0.05c-2.96-0.08-5.91-0.2-8.88-0.34c-0.47-0.03-0.94-0.04-1.4-0.07
		c-162.64-8.38-305.92-108.95-369.93-257.45C48.69,650.57,42.23,551.14,42.23,500c0-49.29,6.36-135.6,60.18-156.27
		C163.4,188.68,310.01,82.26,477.52,73.61c0.47-0.03,0.93-0.05,1.39-0.07c3.01-0.14,6.02-0.25,9.03-0.34
		c0.56-0.02,1.13-0.04,1.68-0.05c3.42-0.08,6.85-0.13,10.27-0.13h0.14H500.1L500.1,73.01z"/>
	<path class="st0" d="M499.89,120.95h0.13h0.07c3,0,5.98,0.04,8.96,0.11c0.59,0.02,1.18,0.03,1.77,0.05
		c2.61,0.07,5.22,0.17,7.82,0.3c0.43,0.02,0.86,0.04,1.29,0.06c151.66,7.82,279.78,104.81,332.92,239.55
		c48.01,2.74,55.15,89.92,55.15,138.97c0,44.97-6.2,121.87-51.07,128.13c-50.41,140.33-181.26,242.33-336.92,250.39l-1.35,0.07
		c-2.63,0.13-5.28,0.22-7.93,0.3c-0.53,0.02-1.05,0.04-1.58,0.05c-3.01,0.08-6.04,0.12-9.07,0.12h-0.13h-0.07
		c-3,0-5.99-0.04-8.97-0.11c-0.57-0.02-1.14-0.03-1.71-0.05c-2.63-0.07-5.25-0.17-7.88-0.3c-0.42-0.02-0.84-0.04-1.26-0.06
		c-151.66-7.82-279.79-104.81-332.93-239.55C99.13,636.23,91.98,549.06,91.98,500c0-44.96,6.2-121.86,51.07-128.13
		c50.41-140.35,181.29-242.35,336.98-250.39c0.41-0.02,0.82-0.04,1.22-0.06c2.67-0.13,5.35-0.23,8.04-0.31
		c0.5-0.01,1-0.03,1.51-0.04C493.82,120.99,496.85,120.95,499.89,120.95L499.89,120.95z"/>
	<path class="st1" d="M500.09,98.26h0.01c3.16,0,6.33,0.05,9.49,0.12c0.62,0.01,1.24,0.03,1.86,0.05c2.76,0.07,5.53,0.18,8.29,0.31
		c0.45,0.02,0.91,0.04,1.36,0.07c153.02,7.89,287.82,102.51,348.05,242.23C924.62,358.32,930.7,451.88,930.7,500
		c0,46.38-5.98,127.59-56.63,147.03c-57.36,145.87-195.28,245.98-352.88,254.15h-0.04l-1.36,0.07c-2.79,0.14-5.59,0.24-8.39,0.32
		c-0.55,0.01-1.1,0.03-1.65,0.04c-3.21,0.08-6.43,0.13-9.65,0.13h-0.13h-0.08c-3.17,0-6.34-0.05-9.51-0.12
		c-0.6-0.01-1.21-0.03-1.8-0.05c-2.78-0.08-5.57-0.18-8.35-0.32c-0.44-0.02-0.89-0.04-1.32-0.07
		c-153.02-7.89-287.83-102.51-348.06-242.23C75.38,641.68,69.29,548.12,69.29,500c0-46.38,5.99-127.58,56.63-147.02
		C183.3,207.09,321.24,106.96,478.85,98.82c0.44-0.03,0.87-0.04,1.3-0.07c2.83-0.14,5.66-0.24,8.5-0.32
		c0.53-0.02,1.06-0.03,1.58-0.05c3.22-0.08,6.44-0.12,9.67-0.12h0.13H500.09L500.09,98.26z M499.89,120.95h0.13h0.07
		c3,0,5.98,0.04,8.96,0.11c0.59,0.02,1.18,0.03,1.77,0.05c2.61,0.07,5.22,0.17,7.82,0.3c0.43,0.02,0.86,0.04,1.29,0.06
		c151.66,7.82,279.78,104.81,332.92,239.55c48.01,2.74,55.15,89.92,55.15,138.97c0,44.97-6.2,121.87-51.07,128.13
		c-50.41,140.33-181.26,242.33-336.92,250.39l-1.35,0.07c-2.63,0.13-5.28,0.22-7.93,0.3c-0.53,0.02-1.05,0.04-1.58,0.05
		c-3.01,0.08-6.04,0.12-9.07,0.12h-0.13h-0.07c-3,0-5.99-0.04-8.97-0.11c-0.57-0.02-1.14-0.03-1.71-0.05
		c-2.63-0.07-5.25-0.17-7.88-0.3c-0.42-0.02-0.84-0.04-1.26-0.06c-151.66-7.82-279.79-104.81-332.93-239.55
		C99.13,636.23,91.98,549.06,91.98,500c0-44.96,6.2-121.86,51.07-128.13c50.41-140.35,181.29-242.35,336.98-250.39
		c0.41-0.02,0.82-0.04,1.22-0.06c2.67-0.13,5.35-0.23,8.04-0.31c0.5-0.01,1-0.03,1.51-0.04
		C493.82,120.99,496.85,120.95,499.89,120.95L499.89,120.95z"/>
	<path class="st2" d="M500,137.68c148.54,0,276.2,89.44,332.13,217.39c-91.87-17.18-201.12-27.14-318.35-27.14
		c-130.34,0-250.81,12.33-348.49,33.18C219.8,229.94,349.14,137.68,500,137.68L500,137.68z M832.13,644.93
		C776.2,772.88,648.54,862.32,500,862.32c-150.86,0-280.2-92.26-334.71-223.42c97.69,20.85,218.15,33.18,348.49,33.18
		C631.01,672.07,740.26,662.11,832.13,644.93L832.13,644.93z"/>
	<path class="st3" d="M221.1,422.07v41.76c0,3.56-2.16,6.26-6.49,8.04l-7.63,2.36l-10.49,2.35c-7.57,1.38-12.43,2.53-14.55,3.56
		c-8.43,4.02-15.57,10.62-21.31,19.76c-5.78,9.13-8.65,19.64-8.65,31.53c0,13.73,3.41,25.5,10.28,35.44
		c6.87,9.93,15.95,17.46,27.25,22.63c11.31,5.17,23.26,7.75,35.86,7.75c12.23,0,24.02-2.53,35.32-7.58
		c11.3-5.06,20.44-12.52,27.47-22.46c7.03-9.94,10.55-21.82,10.55-35.78c0-10.28-1.57-19.12-4.76-26.48
		c-3.14-7.35-8.82-13.84-16.93-19.41l-6.06-4.42l-4.27-3.33l-3.62-3.9c-1.46-1.79-2.7-5.11-3.62-10.05v-43.76
		c0-7.76-2.11-14.42-6.27-19.93c-4.17-5.57-9.84-9.77-16.99-12.64c-7.14-2.87-14.55-4.31-22.22-4.31c-4.27,0-8.22,0.35-12,1.03
		c-3.73,0.63-7.52,1.79-11.31,3.33c-7.19,2.81-13.09,7.24-17.74,13.32c-4.65,6.03-6.97,13.1-6.97,21.19v19.7h40.56v-19.7
		c0-4.48,2.49-6.72,7.46-6.72C218.72,415.35,221.1,417.59,221.1,422.07L221.1,422.07z M225.7,499.61c5.36,0,10.54,3.39,15.46,10.05
		c4.87,6.66,7.36,14.71,7.36,24.12c0,5.63-1.14,11.03-3.41,16.26c-2.27,5.23-5.19,9.42-8.81,12.69c-1.57,1.55-3.31,2.76-5.25,3.62
		c-1.89,0.86-3.68,1.26-5.36,1.26c-7.95,0-14.17-3.39-18.66-10.16c-4.49-6.78-6.71-14.76-6.71-24.01c0-9.07,2.22-17,6.65-23.72
		C211.42,502.99,217.64,499.61,225.7,499.61L225.7,499.61z M329.73,442.73v18.99c0,6.81,1.6,12.13,4.81,15.95
		c1.53,1.79,3.56,3.66,6.06,5.57l8.72,5.73c3.21,1.87,6.02,3.74,8.49,5.53c2.42,1.82,4.54,3.74,6.3,5.69
		c3.36,3.74,5.05,9.06,5.05,16.04v45.65c0,3.82-0.9,7.02-2.73,9.6c-1.92,2.28-4.07,3.45-6.41,3.45c-2.39,0-4.5-1.2-6.38-3.53
		c-1.87-2.37-2.82-5.52-2.82-9.51v-33.36h-35.87v22.64c0,9.35,2.07,17.41,6.22,24.18c4.19,6.77,9.7,12.05,16.58,15.87
		c3.53,1.7,6.97,3.03,10.41,4.03c3.75,0.87,7.55,1.33,11.34,1.33c7.36,0,14.39-1.79,21.08-5.4c6.73-3.62,12.21-9.02,16.47-16.2
		c4.23-7.19,6.34-15.66,6.34-25.5v-33.24c0-6.56-1.6-11.92-4.81-16.04c-1.53-2.03-3.45-4.15-5.83-6.36
		c-2.35-2.16-5.28-4.52-8.68-7.06c-6.22-4.53-10.8-8.48-13.77-11.84c-2.98-3.37-4.46-7.77-4.46-13.21v-18.99H329.73L329.73,442.73z
		 M457.49,442.73c-8.6,0-15.64,1.2-21,3.65c-5.4,2.41-9.39,5.61-12.01,9.47c-2.58,3.9-4.34,7.77-5.24,11.59l-2.43,9.72v28.34
		c0,3.74,0.86,8.06,2.58,12.92c1.72,4.86,4.14,9.31,7.27,13.25c3.13,3.99,6.81,6.9,10.99,8.77h-16.39v22.89h74.17
		c1.29,0,2.5,0,3.68,0c1.13,0,2.35,0.08,3.63,0.25c2,0,5.17,0.38,9.47,1.16c4.3,0.75,8.84,2.03,13.53,3.82
		c4.69,1.79,8.57,4.45,11.62,8.02c3.05,3.57,4.57,7.81,4.57,12.67v7.31h34.73v-20.94c0-5.78-1.8-11.18-5.44-16.2
		c-3.64-5.03-8.69-9.14-15.14-12.3c-6.46-3.16-13.38-4.74-20.77-4.74H500.6c-3.13,0-7.63-0.87-13.5-2.57
		c-5.83-1.71-11.42-4.2-16.7-7.48c-5.32-3.28-9.86-7.52-13.65-12.72c-3.79-5.19-5.67-11-5.67-17.53v-29.66
		c0-2.7,0.75-4.69,2.23-6.02c1.49-1.37,3.29-2.03,5.32-2.03c2.07,0,3.8,0.71,5.16,2.08c1.53,1.2,2.3,3.2,2.3,5.98v22.85h29.34
		v-22.85c0-2.62,0.66-4.61,1.96-5.98c1.29-1.37,2.85-2.08,4.69-2.08c1.6,0,3.05,0.71,4.34,2.08c1.29,1.37,1.96,3.36,1.96,5.98v22.85
		h30.24v-22.85c0-2.62,0.67-4.61,1.96-5.98c1.29-1.37,2.81-2.08,4.57-2.08c1.68,0,3.17,0.71,4.46,2.08
		c1.29,1.37,1.96,3.36,1.96,5.98v39.88h34.74v-35.15c0-4.65-1.09-9.6-3.36-14.91c-2.26-5.32-6.02-9.89-11.3-13.75
		c-5.28-3.86-11.97-5.77-20.07-5.77c-7.39,0-12.83,0.5-16.27,1.45c-3.13,0.75-5.83,3.16-8.14,7.31c-2.26-3.41-5.16-5.73-8.64-6.94
		c-3.48-1.21-8.33-1.83-14.59-1.83c-6.96,0-12.09,0.58-15.41,1.7c-3.33,1.12-5.87,3.49-7.63,7.06
		C478.33,445.64,470.55,442.73,457.49,442.73L457.49,442.73z M641.65,442.73c-6.57,0-12.98,1.58-19.25,4.82
		c-6.26,3.2-11.5,8.1-15.69,14.75c-4.22,6.69-6.3,14.78-6.3,24.34c0,8.23,1.72,15.62,5.16,22.27c3.4,6.69,8.21,11.88,14.32,15.66
		c6.1,3.78,12.75,5.65,19.95,5.65c8.02,0,15.69-1.99,23-6.02c7.36-4.03,13.22-9.56,17.68-16.62c4.42-7.06,6.65-14.79,6.65-23.22
		l-0.12-3.9c0-1.62-0.28-3.33-0.82-5.11l-0.47-2.91c0-2.28,0.7-4.11,2.15-5.48c1.41-1.37,3.05-2.08,4.97-2.08
		c2.31,0,4.26,0.75,5.9,2.24c1.65,1.5,2.47,3.78,2.47,6.77v22.97c0,1.71-0.47,3.33-1.37,4.9c-0.94,1.54-2.11,2.28-3.56,2.28h-5.63
		v20.94h5.63c3.29,0,4.93,1.75,4.93,5.23v31.66c0,4.36-1.64,7.81-4.93,10.3c-3.29,2.45-7.28,3.7-11.93,3.7
		c-4.74,0-8.88-1.41-12.48-4.2c-3.6-2.83-5.4-6.65-5.4-11.51v-17.78h-34.97v15.7c0,1.37,0.16,2.99,0.47,4.86
		c0.32,1.87,0.79,3.82,1.49,5.86c1.29,4.15,3.68,8.3,7.12,12.54c3.44,4.2,8.49,7.81,15.18,10.76c6.69,2.95,15.1,4.45,25.27,4.45
		c7.04,0,13.45-0.71,19.32-2.08c5.83-1.37,11.35-3.57,16.55-6.56c10.09-5.78,16.27-14.99,18.58-27.75l0.12-6.94l0.12-7.07
		c0-4.28-0.27-8.23-0.82-11.8c-0.55-3.57-1.37-6.69-2.51-9.39c-2.15-5.36-6.57-8.93-13.3-10.68c5.6-2.45,9.7-6.48,12.36-12.09
		c2.7-5.57,4.03-13.3,4.03-23.1c0-5.69-0.94-10.8-2.82-15.41c-1.88-4.57-4.46-8.43-7.75-11.63c-6.26-6.23-15.8-9.35-28.63-9.35
		c-10.48,0-18.93,3.9-25.34,11.67c-2.27-3.4-5.99-6.19-11.03-8.39C654.87,443.81,648.77,442.73,641.65,442.73L641.65,442.73z
		 M653.11,475.34v21.52c0,3.66-0.98,6.48-2.98,8.48c-1.99,2-4.3,2.99-6.88,2.99c-2.66,0-5.01-1.04-7-3.08
		c-1.92-2.24-2.86-5.07-2.86-8.39v-21.52c0-3.07,0.94-5.61,2.86-7.56c0.86-0.79,1.87-1.45,3.09-1.91c1.25-0.5,2.54-0.75,3.91-0.75
		c2.73,0,5.08,0.87,7,2.66C652.17,469.57,653.11,472.1,653.11,475.34L653.11,475.34z M840.28,484.6c0-6.36-1.8-12.67-5.36-18.99
		c-3.52-6.36-8.68-11.76-15.41-16.2c-6.73-4.45-14.44-6.69-23.16-6.69c-7.7,0-14.51,1.33-20.38,4.03
		c-5.91,2.66-10.76,6.14-14.55,10.51c-3.83,4.32-6.77,8.97-8.84,13.91c-1.76,4.98-2.62,9.43-2.62,13.42v88.94
		c0,2.45,0.9,6.81,2.74,13.17c1.84,6.31,3.09,9.59,3.79,9.84h32.86c-0.74,0-1.68-2.99-2.81-8.93c-1.1-5.98-1.64-10.67-1.64-14.08
		v-98.21c0-3.57,1.05-6.39,3.17-8.51c2.07-2.12,4.54-3.15,7.39-3.15c2.97,0,5.48,1,7.47,2.99c2.03,1.96,3.06,4.86,3.06,8.68v98.21
		c0,12.01-1.56,19.69-4.7,23.02h34.5c0.71-0.88,1.61-4.57,2.78-11.01c1.13-6.44,1.72-10.47,1.72-12.01V484.6L840.28,484.6z"/>
</g>
</svg>
